<svg width="47" height="29" viewBox="0 0 47 29" fill="none" xmlns="http://www.w3.org/2000/svg">
<path d="M0 14.0351C0 6.28372 6.28372 0 14.0351 0H32.4561C40.2075 0 46.4912 6.28372 46.4912 14.0351V28.0702H14.0351C6.28372 28.0702 0 21.7865 0 14.0351Z" fill="#4845D2"/>
<path d="M32.4562 5.26318H14.0351C9.19051 5.26318 5.26318 9.19051 5.26318 14.0351C5.26318 18.8797 9.19051 22.807 14.0351 22.807H32.4562C37.3008 22.807 41.2281 18.8797 41.2281 14.0351C41.2281 9.19051 37.3008 5.26318 32.4562 5.26318Z" fill="#A5B4FC"/>
<path d="M14.0349 18.4211C16.4572 18.4211 18.4209 16.4574 18.4209 14.0351C18.4209 11.6128 16.4572 9.64917 14.0349 9.64917C11.6126 9.64917 9.64893 11.6128 9.64893 14.0351C9.64893 16.4574 11.6126 18.4211 14.0349 18.4211Z" fill="black"/>
<path d="M12.2805 13.158C12.765 13.158 13.1577 12.7652 13.1577 12.2808C13.1577 11.7963 12.765 11.4036 12.2805 11.4036C11.7961 11.4036 11.4033 11.7963 11.4033 12.2808C11.4033 12.7652 11.7961 13.158 12.2805 13.158Z" fill="white"/>
<path d="M33.3332 18.4211C35.7555 18.4211 37.7192 16.4574 37.7192 14.0351C37.7192 11.6128 35.7555 9.64917 33.3332 9.64917C30.9109 9.64917 28.9473 11.6128 28.9473 14.0351C28.9473 16.4574 30.9109 18.4211 33.3332 18.4211Z" fill="black"/>
<path d="M31.5789 13.158C32.0633 13.158 32.456 12.7652 32.456 12.2808C32.456 11.7963 32.0633 11.4036 31.5789 11.4036C31.0944 11.4036 30.7017 11.7963 30.7017 12.2808C30.7017 12.7652 31.0944 13.158 31.5789 13.158Z" fill="white"/>
</svg>
